<svg xmlns="http://www.w3.org/2000/svg" width="1280" height="720" viewBox="0 0 1280 720">
  <defs>
    <linearGradient id="nsky" x1="0" y1="0" x2="0" y2="1">
      <stop offset="0" stop-color="#0d1330"/><stop offset="1" stop-color="#27305e"/>
    </linearGradient>
    <filter id="soft"><feGaussianBlur stdDeviation="5"/></filter>
    <filter id="glow2"><feGaussianBlur stdDeviation="12"/></filter>
  </defs>
  <rect width="1280" height="720" fill="url(#nsky)"/>
  <circle cx="1080" cy="130" r="46" fill="#e8ecff" filter="url(#glow2)"/>
  <circle cx="1080" cy="130" r="34" fill="#f4f6ff"/>
  <g filter="url(#soft)">
    <rect x="60" y="300" width="150" height="420" fill="#151b3f"/>
    <rect x="250" y="220" width="180" height="500" fill="#101635"/>
    <rect x="470" y="330" width="140" height="390" fill="#171d44"/>
    <rect x="650" y="180" width="200" height="540" fill="#0f1531"/>
    <rect x="890" y="300" width="160" height="420" fill="#141a3d"/>
    <rect x="1090" y="360" width="140" height="360" fill="#101736"/>
  </g>
  <g fill="#ffd97a" opacity="0.85" filter="url(#soft)">
    <rect x="86" y="330" width="18" height="12"/><rect x="130" y="360" width="18" height="12"/><rect x="86" y="420" width="18" height="12"/><rect x="160" y="470" width="18" height="12"/>
    <rect x="280" y="250" width="20" height="13"/><rect x="330" y="300" width="20" height="13"/><rect x="380" y="250" width="20" height="13"/><rect x="300" y="380" width="20" height="13"/><rect x="370" y="430" width="20" height="13"/>
    <rect x="495" y="360" width="17" height="11"/><rect x="545" y="410" width="17" height="11"/><rect x="495" y="480" width="17" height="11"/>
    <rect x="680" y="210" width="20" height="13"/><rect x="740" y="260" width="20" height="13"/><rect x="790" y="210" width="20" height="13"/><rect x="700" y="340" width="20" height="13"/><rect x="780" y="400" width="20" height="13"/><rect x="710" y="470" width="20" height="13"/>
    <rect x="915" y="330" width="18" height="12"/><rect x="975" y="380" width="18" height="12"/><rect x="925" y="450" width="18" height="12"/>
    <rect x="1115" y="390" width="17" height="11"/><rect x="1165" y="440" width="17" height="11"/><rect x="1120" y="510" width="17" height="11"/>
  </g>
</svg>
